STARTFONT 2.1
COMMENT Subset of /efont/ Unicode Bitmap Fonts h24.bdf (U+0020-U+007E) for Stackee.
COMMENT License: see LICENSE-efont.txt (BSD-style, /efont/ The Electronic Font Open Laboratory).
FONT -Efont-Fixed-Medium-R-Normal--24-240-75-75-C-120-ISO10646-1
SIZE 24 75 75
FONTBOUNDINGBOX 12 24 0 -2
STARTPROPERTIES 18
COPYRIGHT "(c) Copyright 2000-2003 /efont/ The Electronic Font Open Laboratory."
FOUNDRY "Efont"
FAMILY_NAME "Fixed"
WEIGHT_NAME "Medium"
SLANT "R"
SETWIDTH_NAME "Normal"
ADD_STYLE_NAME ""
PIXEL_SIZE 24
POINT_SIZE 240
RESOLUTION_X 75
RESOLUTION_Y 75
AVERAGE_WIDTH 120
CHARSET_REGISTRY "ISO10646"
CHARSET_ENCODING "1"
_MULE_BASELINE_OFFSET -3
FONT_ASCENT 22
FONT_DESCENT 2
DEFAULT_CHAR 32
ENDPROPERTIES
CHARS 95
STARTCHAR U+0020
ENCODING 32
SWIDTH 500 0
DWIDTH 12 0
BBX 12 24 0 -2
BITMAP 
0000
0000
0000
0000
0000
0000
0000
0000
0000
0000
0000
0000
0000
0000
0000
0000
0000
0000
0000
0000
0000
0000
0000
0000
ENDCHAR
STARTCHAR U+0021
ENCODING 33
SWIDTH 500 0
DWIDTH 12 0
BBX 12 24 0 -2
BITMAP 
0000
0000
0000
0000
0000
0600
0600
0600
0600
0600
0600
0600
0600
0600
0600
0000
0000
0600
0F00
0600
0000
0000
0000
0000
ENDCHAR
STARTCHAR U+0022
ENCODING 34
SWIDTH 500 0
DWIDTH 12 0
BBX 12 24 0 -2
BITMAP 
0000
0000
0000
0000
1980
1980
1980
1980
1980
0000
0000
0000
0000
0000
0000
0000
0000
0000
0000
0000
0000
0000
0000
0000
ENDCHAR
STARTCHAR U+0023
ENCODING 35
SWIDTH 500 0
DWIDTH 12 0
BBX 12 24 0 -2
BITMAP 
0000
0000
0000
0000
0000
0CC0
0CC0
0CC0
3FE0
3FE0
1980
1980
1980
1980
7FC0
7FC0
3300
3300
3300
0000
0000
0000
0000
0000
ENDCHAR
STARTCHAR U+0024
ENCODING 36
SWIDTH 500 0
DWIDTH 12 0
BBX 12 24 0 -2
BITMAP 
0000
0000
0000
0000
0000
0600
1F80
3FE0
6660
6600
3E00
1F80
07C0
0660
0660
6660
7FC0
3F80
0600
0000
0000
0000
0000
0000
ENDCHAR
STARTCHAR U+0025
ENCODING 37
SWIDTH 500 0
DWIDTH 12 0
BBX 12 24 0 -2
BITMAP 
0000
0000
0000
0000
0000
38C0
7CC0
6D80
7D80
3B00
0300
0600
0600
0C00
0DC0
1BE0
1B60
33E0
31C0
0000
0000
0000
0000
0000
ENDCHAR
STARTCHAR U+0026
ENCODING 38
SWIDTH 500 0
DWIDTH 12 0
BBX 12 24 0 -2
BITMAP 
0000
0000
0000
0000
0000
0700
0F80
1DC0
18C0
1980
0F80
1F00
3E00
7360
61E0
61C0
6180
3FE0
1E60
0000
0000
0000
0000
0000
ENDCHAR
STARTCHAR U+0027
ENCODING 39
SWIDTH 500 0
DWIDTH 12 0
BBX 12 24 0 -2
BITMAP 
0000
0000
0000
0600
0F00
0F00
0300
0300
0600
0C00
0000
0000
0000
0000
0000
0000
0000
0000
0000
0000
0000
0000
0000
0000
ENDCHAR
STARTCHAR U+0028
ENCODING 40
SWIDTH 500 0
DWIDTH 12 0
BBX 12 24 0 -2
BITMAP 
0000
0000
0000
0000
0000
0180
0300
0700
0600
0E00
0C00
0C00
0C00
0C00
0E00
0600
0700
0300
0180
0000
0000
0000
0000
0000
ENDCHAR
STARTCHAR U+0029
ENCODING 41
SWIDTH 500 0
DWIDTH 12 0
BBX 12 24 0 -2
BITMAP 
0000
0000
0000
0000
0000
1800
0C00
0E00
0600
0700
0300
0300
0300
0300
0700
0600
0E00
0C00
1800
0000
0000
0000
0000
0000
ENDCHAR
STARTCHAR U+002A
ENCODING 42
SWIDTH 500 0
DWIDTH 12 0
BBX 12 24 0 -2
BITMAP 
0000
0000
0000
0000
0000
0000
0000
0600
0600
6660
76E0
1F80
0600
1F80
76E0
6660
0600
0600
0000
0000
0000
0000
0000
0000
ENDCHAR
STARTCHAR U+002B
ENCODING 43
SWIDTH 500 0
DWIDTH 12 0
BBX 12 24 0 -2
BITMAP 
0000
0000
0000
0000
0000
0000
0000
0000
0600
0600
0600
0600
7FE0
7FE0
0600
0600
0600
0600
0000
0000
0000
0000
0000
0000
ENDCHAR
STARTCHAR U+002C
ENCODING 44
SWIDTH 500 0
DWIDTH 12 0
BBX 12 24 0 -2
BITMAP 
0000
0000
0000
0000
0000
0000
0000
0000
0000
0000
0000
0000
0000
0000
0000
0600
0F00
0F00
0300
0300
0600
0C00
0000
0000
ENDCHAR
STARTCHAR U+002D
ENCODING 45
SWIDTH 500 0
DWIDTH 12 0
BBX 12 24 0 -2
BITMAP 
0000
0000
0000
0000
0000
0000
0000
0000
0000
0000
0000
0000
7FE0
7FE0
0000
0000
0000
0000
0000
0000
0000
0000
0000
0000
ENDCHAR
STARTCHAR U+002E
ENCODING 46
SWIDTH 500 0
DWIDTH 12 0
BBX 12 24 0 -2
BITMAP 
0000
0000
0000
0000
0000
0000
0000
0000
0000
0000
0000
0000
0000
0000
0000
0600
0F00
0F00
0600
0000
0000
0000
0000
0000
ENDCHAR
STARTCHAR U+002F
ENCODING 47
SWIDTH 500 0
DWIDTH 12 0
BBX 12 24 0 -2
BITMAP 
0000
0000
0000
0000
0000
00C0
00C0
0180
0180
0300
0300
0600
0600
0C00
0C00
1800
1800
3000
3000
0000
0000
0000
0000
0000
ENDCHAR
STARTCHAR U+0030
ENCODING 48
SWIDTH 500 0
DWIDTH 12 0
BBX 12 24 0 -2
BITMAP 
0000
0000
0000
0000
0000
0F00
1F80
39C0
30C0
31C0
33C0
36C0
3CC0
38C0
30C0
30C0
39C0
1F80
0F00
0000
0000
0000
0000
0000
ENDCHAR
STARTCHAR U+0031
ENCODING 49
SWIDTH 500 0
DWIDTH 12 0
BBX 12 24 0 -2
BITMAP 
0000
0000
0000
0000
0000
0600
0E00
1E00
3600
0600
0600
0600
0600
0600
0600
0600
0600
3FC0
3FC0
0000
0000
0000
0000
0000
ENDCHAR
STARTCHAR U+0032
ENCODING 50
SWIDTH 500 0
DWIDTH 12 0
BBX 12 24 0 -2
BITMAP 
0000
0000
0000
0000
0000
0F80
1FC0
30E0
3060
0060
00C0
0180
0300
0600
0C00
1800
3000
3FE0
3FE0
0000
0000
0000
0000
0000
ENDCHAR
STARTCHAR U+0033
ENCODING 51
SWIDTH 500 0
DWIDTH 12 0
BBX 12 24 0 -2
BITMAP 
0000
0000
0000
0000
0000
0F80
1FC0
30E0
3060
0060
00C0
0780
07C0
0060
0060
3060
30E0
1FC0
0F80
0000
0000
0000
0000
0000
ENDCHAR
STARTCHAR U+0034
ENCODING 52
SWIDTH 500 0
DWIDTH 12 0
BBX 12 24 0 -2
BITMAP 
0000
0000
0000
0000
0000
0300
0300
0600
0600
0D80
0D80
1980
1980
3180
3FE0
3FE0
0180
0180
0180
0000
0000
0000
0000
0000
ENDCHAR
STARTCHAR U+0035
ENCODING 53
SWIDTH 500 0
DWIDTH 12 0
BBX 12 24 0 -2
BITMAP 
0000
0000
0000
0000
0000
3FC0
3FC0
3000
3000
3000
3F80
3FC0
00E0
0060
0060
3060
30E0
1FC0
0F80
0000
0000
0000
0000
0000
ENDCHAR
STARTCHAR U+0036
ENCODING 54
SWIDTH 500 0
DWIDTH 12 0
BBX 12 24 0 -2
BITMAP 
0000
0000
0000
0000
0000
0F80
1FC0
3860
3060
3000
3780
3FC0
38E0
3060
3060
3060
38E0
1FC0
0F80
0000
0000
0000
0000
0000
ENDCHAR
STARTCHAR U+0037
ENCODING 55
SWIDTH 500 0
DWIDTH 12 0
BBX 12 24 0 -2
BITMAP 
0000
0000
0000
0000
0000
3FE0
3FE0
00C0
00C0
0180
0180
0300
0300
0600
0600
0C00
0C00
1800
1800
0000
0000
0000
0000
0000
ENDCHAR
STARTCHAR U+0038
ENCODING 56
SWIDTH 500 0
DWIDTH 12 0
BBX 12 24 0 -2
BITMAP 
0000
0000
0000
0000
0000
0F00
1F80
30C0
30C0
30C0
1F80
1F80
39C0
70E0
6060
6060
70E0
3FC0
1F80
0000
0000
0000
0000
0000
ENDCHAR
STARTCHAR U+0039
ENCODING 57
SWIDTH 500 0
DWIDTH 12 0
BBX 12 24 0 -2
BITMAP 
0000
0000
0000
0000
0000
0F80
1FC0
38E0
3060
3060
38E0
1FE0
0F60
0060
0060
3060
30E0
1FC0
0F80
0000
0000
0000
0000
0000
ENDCHAR
STARTCHAR U+003A
ENCODING 58
SWIDTH 500 0
DWIDTH 12 0
BBX 12 24 0 -2
BITMAP 
0000
0000
0000
0000
0000
0000
0000
0000
0600
0F00
0F00
0600
0000
0000
0000
0600
0F00
0F00
0600
0000
0000
0000
0000
0000
ENDCHAR
STARTCHAR U+003B
ENCODING 59
SWIDTH 500 0
DWIDTH 12 0
BBX 12 24 0 -2
BITMAP 
0000
0000
0000
0000
0000
0000
0000
0000
0600
0F00
0F00
0600
0000
0000
0000
0600
0F00
0F00
0300
0300
0600
0C00
0000
0000
ENDCHAR
STARTCHAR U+003C
ENCODING 60
SWIDTH 500 0
DWIDTH 12 0
BBX 12 24 0 -2
BITMAP 
0000
0000
0000
0000
0000
0000
0000
0000
0060
01C0
0700
1E00
7800
7800
1E00
0780
01C0
0060
0000
0000
0000
0000
0000
0000
ENDCHAR
STARTCHAR U+003D
ENCODING 61
SWIDTH 500 0
DWIDTH 12 0
BBX 12 24 0 -2
BITMAP 
0000
0000
0000
0000
0000
0000
0000
0000
0000
0000
7FE0
7FE0
0000
0000
7FE0
7FE0
0000
0000
0000
0000
0000
0000
0000
0000
ENDCHAR
STARTCHAR U+003E
ENCODING 62
SWIDTH 500 0
DWIDTH 12 0
BBX 12 24 0 -2
BITMAP 
0000
0000
0000
0000
0000
0000
0000
0000
6000
3800
0E00
0780
01E0
01E0
0780
0E00
3800
6000
0000
0000
0000
0000
0000
0000
ENDCHAR
STARTCHAR U+003F
ENCODING 63
SWIDTH 500 0
DWIDTH 12 0
BBX 12 24 0 -2
BITMAP 
0000
0000
0000
0000
0000
0F00
1F80
39C0
20C0
00C0
0180
0300
0600
0600
0600
0000
0000
0600
0F00
0600
0000
0000
0000
0000
ENDCHAR
STARTCHAR U+0040
ENCODING 64
SWIDTH 500 0
DWIDTH 12 0
BBX 12 24 0 -2
BITMAP 
0000
0000
0000
0000
0000
0F80
1FC0
3860
3060
33E0
37E0
3660
3660
3660
37E0
33C0
3800
1FE0
0FE0
0000
0000
0000
0000
0000
ENDCHAR
STARTCHAR U+0041
ENCODING 65
SWIDTH 500 0
DWIDTH 12 0
BBX 12 24 0 -2
BITMAP 
0000
0000
0000
0000
0000
0F80
1FC0
38E0
3060
3060
3060
3FE0
3FE0
3060
3060
3060
3060
3060
3060
0000
0000
0000
0000
0000
ENDCHAR
STARTCHAR U+0042
ENCODING 66
SWIDTH 500 0
DWIDTH 12 0
BBX 12 24 0 -2
BITMAP 
0000
0000
0000
0000
0000
3F00
3F80
31C0
30C0
30C0
3180
3F80
3FC0
30C0
3060
3060
30E0
3FC0
3F80
0000
0000
0000
0000
0000
ENDCHAR
STARTCHAR U+0043
ENCODING 67
SWIDTH 500 0
DWIDTH 12 0
BBX 12 24 0 -2
BITMAP 
0000
0000
0000
0000
0000
0F80
1FC0
38E0
3060
3000
3000
3000
3000
3000
3000
3060
38E0
1FC0
0F80
0000
0000
0000
0000
0000
ENDCHAR
STARTCHAR U+0044
ENCODING 68
SWIDTH 500 0
DWIDTH 12 0
BBX 12 24 0 -2
BITMAP 
0000
0000
0000
0000
0000
3F80
3FC0
30E0
3060
3060
3060
3060
3060
3060
3060
3060
30E0
3FC0
3F80
0000
0000
0000
0000
0000
ENDCHAR
STARTCHAR U+0045
ENCODING 69
SWIDTH 500 0
DWIDTH 12 0
BBX 12 24 0 -2
BITMAP 
0000
0000
0000
0000
0000
3FE0
3FE0
3000
3000
3000
3000
3F80
3F80
3000
3000
3000
3000
3FE0
3FE0
0000
0000
0000
0000
0000
ENDCHAR
STARTCHAR U+0046
ENCODING 70
SWIDTH 500 0
DWIDTH 12 0
BBX 12 24 0 -2
BITMAP 
0000
0000
0000
0000
0000
3FE0
3FE0
3000
3000
3000
3000
3F80
3F80
3000
3000
3000
3000
3000
3000
0000
0000
0000
0000
0000
ENDCHAR
STARTCHAR U+0047
ENCODING 71
SWIDTH 500 0
DWIDTH 12 0
BBX 12 24 0 -2
BITMAP 
0000
0000
0000
0000
0000
0F80
1FC0
38E0
3060
3000
3000
3000
31E0
31E0
3060
3060
38E0
1FC0
0F80
0000
0000
0000
0000
0000
ENDCHAR
STARTCHAR U+0048
ENCODING 72
SWIDTH 500 0
DWIDTH 12 0
BBX 12 24 0 -2
BITMAP 
0000
0000
0000
0000
0000
3060
3060
3060
3060
3060
3060
3FE0
3FE0
3060
3060
3060
3060
3060
3060
0000
0000
0000
0000
0000
ENDCHAR
STARTCHAR U+0049
ENCODING 73
SWIDTH 500 0
DWIDTH 12 0
BBX 12 24 0 -2
BITMAP 
0000
0000
0000
0000
0000
1F80
1F80
0600
0600
0600
0600
0600
0600
0600
0600
0600
0600
1F80
1F80
0000
0000
0000
0000
0000
ENDCHAR
STARTCHAR U+004A
ENCODING 74
SWIDTH 500 0
DWIDTH 12 0
BBX 12 24 0 -2
BITMAP 
0000
0000
0000
0000
0000
0060
0060
0060
0060
0060
0060
0060
0060
0060
0060
3060
30E0
1FC0
0F80
0000
0000
0000
0000
0000
ENDCHAR
STARTCHAR U+004B
ENCODING 75
SWIDTH 500 0
DWIDTH 12 0
BBX 12 24 0 -2
BITMAP 
0000
0000
0000
0000
0000
3060
30C0
3180
3300
3600
3C00
3800
3C00
3600
3300
3180
30C0
3060
3020
0000
0000
0000
0000
0000
ENDCHAR
STARTCHAR U+004C
ENCODING 76
SWIDTH 500 0
DWIDTH 12 0
BBX 12 24 0 -2
BITMAP 
0000
0000
0000
0000
0000
3000
3000
3000
3000
3000
3000
3000
3000
3000
3000
3000
3000
3FE0
3FE0
0000
0000
0000
0000
0000
ENDCHAR
STARTCHAR U+004D
ENCODING 77
SWIDTH 500 0
DWIDTH 12 0
BBX 12 24 0 -2
BITMAP 
0000
0000
0000
0000
0000
3060
38E0
38E0
3DE0
3FE0
3760
3760
3260
3060
3060
3060
3060
3060
3060
0000
0000
0000
0000
0000
ENDCHAR
STARTCHAR U+004E
ENCODING 78
SWIDTH 500 0
DWIDTH 12 0
BBX 12 24 0 -2
BITMAP 
0000
0000
0000
0000
0000
3060
3860
3860
3C60
3C60
3660
3660
3360
3360
31E0
31E0
30E0
30E0
3060
0000
0000
0000
0000
0000
ENDCHAR
STARTCHAR U+004F
ENCODING 79
SWIDTH 500 0
DWIDTH 12 0
BBX 12 24 0 -2
BITMAP 
0000
0000
0000
0000
0000
0F80
1FC0
38E0
3060
3060
3060
3060
3060
3060
3060
3060
38E0
1FC0
0F80
0000
0000
0000
0000
0000
ENDCHAR
STARTCHAR U+0050
ENCODING 80
SWIDTH 500 0
DWIDTH 12 0
BBX 12 24 0 -2
BITMAP 
0000
0000
0000
0000
0000
3F80
3FC0
30E0
3060
3060
30E0
3FC0
3F80
3000
3000
3000
3000
3000
3000
0000
0000
0000
0000
0000
ENDCHAR
STARTCHAR U+0051
ENCODING 81
SWIDTH 500 0
DWIDTH 12 0
BBX 12 24 0 -2
BITMAP 
0000
0000
0000
0000
0000
0F80
1FC0
38E0
3060
3060
3060
3060
3060
3060
3060
31E0
39E0
1FC0
0FF0
0030
0000
0000
0000
0000
ENDCHAR
STARTCHAR U+0052
ENCODING 82
SWIDTH 500 0
DWIDTH 12 0
BBX 12 24 0 -2
BITMAP 
0000
0000
0000
0000
0000
3F80
3FC0
30E0
3060
3060
30E0
3FC0
3F80
3180
3180
30C0
30C0
3060
3060
0000
0000
0000
0000
0000
ENDCHAR
STARTCHAR U+0053
ENCODING 83
SWIDTH 500 0
DWIDTH 12 0
BBX 12 24 0 -2
BITMAP 
0000
0000
0000
0000
0000
0F80
1FC0
30E0
3060
3000
3800
1F80
0FC0
00E0
0060
3060
30E0
3FC0
1F80
0000
0000
0000
0000
0000
ENDCHAR
STARTCHAR U+0054
ENCODING 84
SWIDTH 500 0
DWIDTH 12 0
BBX 12 24 0 -2
BITMAP 
0000
0000
0000
0000
0000
7FE0
7FE0
0600
0600
0600
0600
0600
0600
0600
0600
0600
0600
0600
0600
0000
0000
0000
0000
0000
ENDCHAR
STARTCHAR U+0055
ENCODING 85
SWIDTH 500 0
DWIDTH 12 0
BBX 12 24 0 -2
BITMAP 
0000
0000
0000
0000
0000
3060
3060
3060
3060
3060
3060
3060
3060
3060
3060
3060
38E0
1FC0
0F80
0000
0000
0000
0000
0000
ENDCHAR
STARTCHAR U+0056
ENCODING 86
SWIDTH 500 0
DWIDTH 12 0
BBX 12 24 0 -2
BITMAP 
0000
0000
0000
0000
0000
6060
6060
6060
30C0
30C0
30C0
1980
1980
1980
0900
0F00
0F00
0600
0600
0000
0000
0000
0000
0000
ENDCHAR
STARTCHAR U+0057
ENCODING 87
SWIDTH 500 0
DWIDTH 12 0
BBX 12 24 0 -2
BITMAP 
0000
0000
0000
0000
0000
3060
3060
3060
3060
3060
3060
3260
3760
3760
3DE0
3DE0
38E0
38E0
3060
0000
0000
0000
0000
0000
ENDCHAR
STARTCHAR U+0058
ENCODING 88
SWIDTH 500 0
DWIDTH 12 0
BBX 12 24 0 -2
BITMAP 
0000
0000
0000
0000
0000
3060
3060
18C0
18C0
0D80
0D80
0700
0700
0D80
0D80
18C0
18C0
3060
3060
0000
0000
0000
0000
0000
ENDCHAR
STARTCHAR U+0059
ENCODING 89
SWIDTH 500 0
DWIDTH 12 0
BBX 12 24 0 -2
BITMAP 
0000
0000
0000
0000
0000
6060
6060
30C0
30C0
1980
1F80
0F00
0600
0600
0600
0600
0600
0600
0600
0000
0000
0000
0000
0000
ENDCHAR
STARTCHAR U+005A
ENCODING 90
SWIDTH 500 0
DWIDTH 12 0
BBX 12 24 0 -2
BITMAP 
0000
0000
0000
0000
0000
7FE0
7FE0
0060
00E0
01C0
0380
0700
0E00
1C00
3800
7000
6000
7FE0
7FE0
0000
0000
0000
0000
0000
ENDCHAR
STARTCHAR U+005B
ENCODING 91
SWIDTH 500 0
DWIDTH 12 0
BBX 12 24 0 -2
BITMAP 
0000
0000
0000
0000
0F80
0F80
0C00
0C00
0C00
0C00
0C00
0C00
0C00
0C00
0C00
0C00
0C00
0F80
0F80
0000
0000
0000
0000
0000
ENDCHAR
STARTCHAR U+005C
ENCODING 92
SWIDTH 500 0
DWIDTH 12 0
BBX 12 24 0 -2
BITMAP 
0000
0000
0000
0000
0000
3000
3000
1800
1800
0C00
0C00
0600
0600
0300
0300
0180
0180
00C0
00C0
0000
0000
0000
0000
0000
ENDCHAR
STARTCHAR U+005D
ENCODING 93
SWIDTH 500 0
DWIDTH 12 0
BBX 12 24 0 -2
BITMAP 
0000
0000
0000
0000
1F00
1F00
0300
0300
0300
0300
0300
0300
0300
0300
0300
0300
0300
1F00
1F00
0000
0000
0000
0000
0000
ENDCHAR
STARTCHAR U+005E
ENCODING 94
SWIDTH 500 0
DWIDTH 12 0
BBX 12 24 0 -2
BITMAP 
0000
0000
0000
0000
0200
0700
0D80
18C0
3060
0000
0000
0000
0000
0000
0000
0000
0000
0000
0000
0000
0000
0000
0000
0000
ENDCHAR
STARTCHAR U+005F
ENCODING 95
SWIDTH 500 0
DWIDTH 12 0
BBX 12 24 0 -2
BITMAP 
0000
0000
0000
0000
0000
0000
0000
0000
0000
0000
0000
0000
0000
0000
0000
0000
0000
0000
0000
0000
FFF0
FFF0
0000
0000
ENDCHAR
STARTCHAR U+0060
ENCODING 96
SWIDTH 500 0
DWIDTH 12 0
BBX 12 24 0 -2
BITMAP 
0000
0000
0000
0300
0600
0C00
0C00
0F00
0F00
0600
0000
0000
0000
0000
0000
0000
0000
0000
0000
0000
0000
0000
0000
0000
ENDCHAR
STARTCHAR U+0061
ENCODING 97
SWIDTH 500 0
DWIDTH 12 0
BBX 12 24 0 -2
BITMAP 
0000
0000
0000
0000
0000
0000
0000
0000
0780
0FC0
1860
0060
07E0
1FE0
3060
30E0
31E0
3F60
1E60
0000
0000
0000
0000
0000
ENDCHAR
STARTCHAR U+0062
ENCODING 98
SWIDTH 500 0
DWIDTH 12 0
BBX 12 24 0 -2
BITMAP 
0000
0000
0000
0000
0000
3000
3000
3000
3000
3380
37C0
3CE0
3860
3060
3060
3860
3CE0
37C0
3380
0000
0000
0000
0000
0000
ENDCHAR
STARTCHAR U+0063
ENCODING 99
SWIDTH 500 0
DWIDTH 12 0
BBX 12 24 0 -2
BITMAP 
0000
0000
0000
0000
0000
0000
0000
0000
0000
0FC0
1FC0
3860
3060
3000
3000
3000
3860
1FE0
0FC0
0000
0000
0000
0000
0000
ENDCHAR
STARTCHAR U+0064
ENCODING 100
SWIDTH 500 0
DWIDTH 12 0
BBX 12 24 0 -2
BITMAP 
0000
0000
0000
0000
0000
0060
0060
0060
0060
0F60
1FE0
38E0
3060
3060
3060
30E0
31E0
1F60
0E60
0000
0000
0000
0000
0000
ENDCHAR
STARTCHAR U+0065
ENCODING 101
SWIDTH 500 0
DWIDTH 12 0
BBX 12 24 0 -2
BITMAP 
0000
0000
0000
0000
0000
0000
0000
0000
0000
0F80
1FC0
3860
3060
3FE0
3FE0
3000
3060
1FE0
0FC0
0000
0000
0000
0000
0000
ENDCHAR
STARTCHAR U+0066
ENCODING 102
SWIDTH 500 0
DWIDTH 12 0
BBX 12 24 0 -2
BITMAP 
0000
0000
0000
0000
0000
0380
0780
0600
0600
0600
1F80
1F80
0600
0600
0600
0600
0600
0600
0600
0000
0000
0000
0000
0000
ENDCHAR
STARTCHAR U+0067
ENCODING 103
SWIDTH 500 0
DWIDTH 12 0
BBX 12 24 0 -2
BITMAP 
0000
0000
0000
0000
0000
0000
0000
0000
0000
0E60
1F60
39E0
30E0
3060
3060
3060
38E0
1FE0
0F60
0060
0060
0060
0FC0
0780
ENDCHAR
STARTCHAR U+0068
ENCODING 104
SWIDTH 500 0
DWIDTH 12 0
BBX 12 24 0 -2
BITMAP 
0000
0000
0000
0000
0000
3000
3000
3000
3000
3380
37C0
3CE0
3860
3060
3060
3060
3060
3060
3060
0000
0000
0000
0000
0000
ENDCHAR
STARTCHAR U+0069
ENCODING 105
SWIDTH 500 0
DWIDTH 12 0
BBX 12 24 0 -2
BITMAP 
0000
0000
0000
0000
0000
0600
0600
0000
0000
0600
0600
0600
0600
0600
0600
0600
0600
0600
0600
0000
0000
0000
0000
0000
ENDCHAR
STARTCHAR U+006A
ENCODING 106
SWIDTH 500 0
DWIDTH 12 0
BBX 12 24 0 -2
BITMAP 
0000
0000
0000
0000
0000
0600
0600
0000
0000
0600
0600
0600
0600
0600
0600
0600
0600
0600
0600
0600
0600
3E00
3800
0000
ENDCHAR
STARTCHAR U+006B
ENCODING 107
SWIDTH 500 0
DWIDTH 12 0
BBX 12 24 0 -2
BITMAP 
0000
0000
0000
0000
0000
0000
3000
3000
30C0
31C0
3380
3700
3E00
3C00
3E00
3700
3380
31C0
30C0
0000
0000
0000
0000
0000
ENDCHAR
STARTCHAR U+006C
ENCODING 108
SWIDTH 500 0
DWIDTH 12 0
BBX 12 24 0 -2
BITMAP 
0000
0000
0000
0000
0000
0600
0600
0600
0600
0600
0600
0600
0600
0600
0600
0600
0600
0780
0380
0000
0000
0000
0000
0000
ENDCHAR
STARTCHAR U+006D
ENCODING 109
SWIDTH 500 0
DWIDTH 12 0
BBX 12 24 0 -2
BITMAP 
0000
0000
0000
0000
0000
0000
0000
0000
0000
6DC0
7FE0
6660
6660
6660
6660
6660
6660
6660
6660
0000
0000
0000
0000
0000
ENDCHAR
STARTCHAR U+006E
ENCODING 110
SWIDTH 500 0
DWIDTH 12 0
BBX 12 24 0 -2
BITMAP 
0000
0000
0000
0000
0000
0000
0000
0000
0000
3380
37C0
3C60
3860
3060
3060
3060
3060
3060
3060
0000
0000
0000
0000
0000
ENDCHAR
STARTCHAR U+006F
ENCODING 111
SWIDTH 500 0
DWIDTH 12 0
BBX 12 24 0 -2
BITMAP 
0000
0000
0000
0000
0000
0000
0000
0000
0000
0F80
1FC0
38E0
3060
3060
3060
3060
38E0
1FC0
0F80
0000
0000
0000
0000
0000
ENDCHAR
STARTCHAR U+0070
ENCODING 112
SWIDTH 500 0
DWIDTH 12 0
BBX 12 24 0 -2
BITMAP 
0000
0000
0000
0000
0000
0000
0000
0000
0000
3380
37C0
3CE0
3860
3060
3060
3860
3CE0
37C0
3380
3000
3000
3000
3000
0000
ENDCHAR
STARTCHAR U+0071
ENCODING 113
SWIDTH 500 0
DWIDTH 12 0
BBX 12 24 0 -2
BITMAP 
0000
0000
0000
0000
0000
0000
0000
0000
0000
0E60
1F60
39E0
30E0
3060
3060
30E0
39E0
1F60
0E60
0060
0060
0060
0060
0000
ENDCHAR
STARTCHAR U+0072
ENCODING 114
SWIDTH 500 0
DWIDTH 12 0
BBX 12 24 0 -2
BITMAP 
0000
0000
0000
0000
0000
0000
0000
0000
0000
3380
37C0
3C60
3860
3000
3000
3000
3000
3000
3000
0000
0000
0000
0000
0000
ENDCHAR
STARTCHAR U+0073
ENCODING 115
SWIDTH 500 0
DWIDTH 12 0
BBX 12 24 0 -2
BITMAP 
0000
0000
0000
0000
0000
0000
0000
0000
0000
1FC0
3FE0
3020
3000
1F80
0FC0
0060
3060
3FE0
1FC0
0000
0000
0000
0000
0000
ENDCHAR
STARTCHAR U+0074
ENCODING 116
SWIDTH 500 0
DWIDTH 12 0
BBX 12 24 0 -2
BITMAP 
0000
0000
0000
0000
0000
0000
0600
0600
0600
1F80
1F80
0600
0600
0600
0600
0600
0600
0780
0380
0000
0000
0000
0000
0000
ENDCHAR
STARTCHAR U+0075
ENCODING 117
SWIDTH 500 0
DWIDTH 12 0
BBX 12 24 0 -2
BITMAP 
0000
0000
0000
0000
0000
0000
0000
0000
0000
3060
3060
3060
3060
3060
3060
30E0
39E0
1F60
0E60
0000
0000
0000
0000
0000
ENDCHAR
STARTCHAR U+0076
ENCODING 118
SWIDTH 500 0
DWIDTH 12 0
BBX 12 24 0 -2
BITMAP 
0000
0000
0000
0000
0000
0000
0000
0000
0000
6060
6060
30C0
30C0
1980
1980
0F00
0F00
0600
0600
0000
0000
0000
0000
0000
ENDCHAR
STARTCHAR U+0077
ENCODING 119
SWIDTH 500 0
DWIDTH 12 0
BBX 12 24 0 -2
BITMAP 
0000
0000
0000
0000
0000
0000
0000
0000
0000
3060
3060
3060
3060
3260
3760
3760
3DE0
38E0
3060
0000
0000
0000
0000
0000
ENDCHAR
STARTCHAR U+0078
ENCODING 120
SWIDTH 500 0
DWIDTH 12 0
BBX 12 24 0 -2
BITMAP 
0000
0000
0000
0000
0000
0000
0000
0000
0000
3060
3060
18C0
0D80
0700
0700
0D80
18C0
3060
3060
0000
0000
0000
0000
0000
ENDCHAR
STARTCHAR U+0079
ENCODING 121
SWIDTH 500 0
DWIDTH 12 0
BBX 12 24 0 -2
BITMAP 
0000
0000
0000
0000
0000
0000
0000
0000
0000
3060
3060
3060
3060
3060
3060
3060
30E0
1FE0
0F60
0060
0060
0060
1FC0
0F80
ENDCHAR
STARTCHAR U+007A
ENCODING 122
SWIDTH 500 0
DWIDTH 12 0
BBX 12 24 0 -2
BITMAP 
0000
0000
0000
0000
0000
0000
0000
0000
0000
3FE0
3FE0
00C0
0180
0300
0600
0C00
1800
3FE0
3FE0
0000
0000
0000
0000
0000
ENDCHAR
STARTCHAR U+007B
ENCODING 123
SWIDTH 500 0
DWIDTH 12 0
BBX 12 24 0 -2
BITMAP 
0000
0000
0000
0000
0380
0600
0600
0600
0600
0600
0C00
1C00
0C00
0600
0600
0600
0600
0600
0380
0000
0000
0000
0000
0000
ENDCHAR
STARTCHAR U+007C
ENCODING 124
SWIDTH 500 0
DWIDTH 12 0
BBX 12 24 0 -2
BITMAP 
0000
0600
0600
0600
0600
0600
0600
0600
0600
0600
0600
0600
0600
0600
0600
0600
0600
0600
0600
0600
0600
0600
0600
0000
ENDCHAR
STARTCHAR U+007D
ENCODING 125
SWIDTH 500 0
DWIDTH 12 0
BBX 12 24 0 -2
BITMAP 
0000
0000
0000
0000
1C00
0600
0600
0600
0600
0600
0300
0380
0300
0600
0600
0600
0600
0600
1C00
0000
0000
0000
0000
0000
ENDCHAR
STARTCHAR U+007E
ENCODING 126
SWIDTH 500 0
DWIDTH 12 0
BBX 12 24 0 -2
BITMAP 
0000
0000
0000
0000
1C20
3E60
27E0
61C0
0000
0000
0000
0000
0000
0000
0000
0000
0000
0000
0000
0000
0000
0000
0000
0000
ENDCHAR
ENDFONT
